:SAMPLES-PER-SECOND 30
:FRAME-RANGE 1-2091
:FULLY-SPECIFIED
:DEGREES
327
root  -61.2727 38.0259 92.3056 179.19 -9.49737 176.85
RightUpLeg  -19.0699 -14.7584 6.10978
RightLeg  13.1174 -15.6878 -3.41699
RightFoot  -8.3165 -0.294227 8.97993
RightToes  5.82063e-011 0 -3.6325e-017
Spine  6.85596 -2.82629 -6.27218
Spine1  -0.380935 -3.40929 1.36186
HEad  1.11848 -22.4856 4.186
LeftShoulder1  1.80486 -1.16991 -32.578
LeftArm  23.8852 -4.00523 -37.2474
LeftForeArm  1.84821 -4.15501 -18.6997
LeftHand  0.291734 -1.34036 -4.92831
RightShoulder  4.85232 5.36554 47.9474
RightArm  43.073 -6.52861 17.877
RightForeArm  -5.66887 22.5059 5.6104
RightHand  0.441375 4.01362 5.1725
LeftUpLeg  6.02996 4.88692 -8.40713
LeftLeg  7.42178 4.06565 -2.10218
LeftFoot  -14.4427 0.122272 1.31414
LeftToes  -6.27584e-011 -2.25241e-010 2.80627e-011
328
root  -61.8739 37.801 91.4079 179.167 -10.9248 176.237
RightUpLeg  -17.5677 -10.8813 5.57611
RightLeg  8.11716 -23.9578 0.557583
RightFoot  -8.19033 -0.302718 8.95948
RightToes  5.82063e-011 0 -3.6325e-017
Spine  6.15531 -3.00886 -6.48143
Spine1  0.0893385 -3.66991 1.8409
HEad  0.523146 -27.8829 4.81088
LeftShoulder1  1.8203 -1.20744 -32.5984
LeftArm  23.7863 -3.45587 -37.8165
LeftForeArm  2.30137 -4.04501 -18.7044
LeftHand  0.304201 -1.46629 -5.03661
RightShoulder  4.6375 5.00377 47.7747
RightArm  42.993 -6.57136 17.9954
RightForeArm  -5.11368 23.3023 5.33121
RightHand  0.486089 4.16986 5.61835
LeftUpLeg  7.86876 4.53159 -9.70097
LeftLeg  7.57069 3.43093 -2.00785
LeftFoot  -15.8803 0.169846 1.88007
LeftToes  -6.27584e-011 -2.25241e-010 2.80627e-011
329
root  -62.5166 37.5356 90.4255 179.309 -11.9905 175.557
RightUpLeg  -15.9793 -6.55139 4.92711
RightLeg  3.75149 -32.8872 4.71883
RightFoot  -8.02848 -0.312416 8.89442
RightToes  5.82063e-011 0 -3.6325e-017
Spine  5.06379 -3.36037 -6.40915
Spine1  0.64228 -4.02853 1.94587
HEad  -0.237668 -33.9352 5.53565
LeftShoulder1  1.7881 -1.15339 -32.3553
LeftArm  22.1143 -2.28168 -38.2326
LeftForeArm  3.79126 -3.68521 -18.6498
LeftHand  0.309209 -1.52634 -5.07107
RightShoulder  4.45421 4.62974 48.0031
RightArm  43.0436 -6.62531 17.9346
RightForeArm  -5.05938 23.5161 5.31593
RightHand  0.429651 4.1054 4.97315
LeftUpLeg  9.56898 4.50782 -10.8114
LeftLeg  8.07097 2.82315 -2.3114
LeftFoot  -17.4408 0.235647 2.45711
LeftToes  -6.27584e-011 -2.25241e-010 2.80627e-011
330
root  -63.2053 37.2667 89.3929 179.517 -13.0953 175.157
RightUpLeg  -14.9988 -6.86815 5.80692
RightLeg  2.56429 -35.6113 7.00534
RightFoot  -7.65366 -0.211502 4.94944
RightToes  5.82063e-011 0 -3.6325e-017
Spine  3.92518 -3.85311 -6.03794
Spine1  1.09438 -4.6391 2.51513
HEad  -1.06793 -40.4128 5.80152
LeftShoulder1  1.78153 -1.12995 -32.4073
LeftArm  20.3127 -0.658682 -38.3947
LeftForeArm  5.22883 -3.53521 -18.5139
LeftHand  0.338029 -1.75439 -5.35618
RightShoulder  4.16175 4.1184 47.8649
RightArm  43.7069 -6.80898 17.9578
RightForeArm  -5.56172 23.3572 5.34947
RightHand  0.426766 3.99606 5.00324
LeftUpLeg  11.0513 4.68944 -11.4293
LeftLeg  9.08699 2.04969 -2.83146
LeftFoot  -18.9244 0.322078 3.14399
LeftToes  -6.27584e-011 -2.25241e-010 2.80627e-011
331
root  -63.9089 37.0641 88.2915 179.591 -13.8144 175.177
RightUpLeg  -14.4537 -7.97429 7.52064
RightLeg  4.91327 -34.2265 5.73057
RightFoot  -9.58029 0.00466005 -4.50988
RightToes  5.82063e-011 0 -3.6325e-017
Spine  2.81271 -4.27551 -5.19877
Spine1  1.52013 -5.27761 3.47283
HEad  -2.14742 -46.6179 5.78743
LeftShoulder1  1.82638 -1.21497 -32.6655
LeftArm  17.5307 1.56216 -38.4279
LeftForeArm  7.28579 -3.30594 -18.3034
LeftHand  0.301333 -1.55638 -4.91418
RightShoulder  3.78775 3.46871 47.6295
RightArm  44.6367 -7.04283 17.7906
RightForeArm  -6.24953 22.7984 5.52437
RightHand  0.425388 4.06252 4.94651
LeftUpLeg  12.6487 5.32939 -11.3014
LeftLeg  10.1932 0.635697 -3.58585
LeftFoot  -19.8827 0.321468 2.70528
LeftToes  -6.27584e-011 -2.25241e-010 2.80627e-011
332
root  -64.6235 36.9778 87.1739 179.43 -13.9688 175.713
RightUpLeg  -15.3759 -6.03258 8.68892
RightLeg  10.2779 -36.8914 0.865598
RightFoot  -9.68398 0.149966 -14.7636
RightToes  5.82063e-011 0 -3.6325e-017
Spine  2.14479 -4.62716 -3.42544
Spine1  1.74987 -5.88775 4.38957
HEad  -3.2066 -51.1027 5.35875
LeftShoulder1  1.84526 -1.23742 -32.8801
LeftArm  14.2858 4.46842 -38.2246
LeftForeArm  9.35183 -3.52372 -17.896
LeftHand  0.302952 -1.60432 -4.90265
RightShoulder  3.53058 3.00044 47.6005
RightArm  45.0479 -7.06233 17.3332
RightForeArm  -6.31405 21.3497 6.45488
RightHand  0.414038 4.01757 4.83363
LeftUpLeg  14.2403 10.5292 -8.94437
LeftLeg  12.2177 -4.46513 -4.7482
LeftFoot  -19.9079 0.251781 1.76581
LeftToes  -6.27584e-011 -2.25241e-010 2.80627e-011
